<svg xmlns="http://www.w3.org/2000/svg" viewBox="0 0 32 32" width="32" height="32">
  <defs>
    <clipPath id="bowlClip">
      <path d="M11,3 Q10.5,3 10,3.5 C8,7 7,11 8.5,15 C9.8,18.2 12.5,20 16,20 C19.5,20 22.2,18.2 23.5,15 C25,11 24,7 22,3.5 Q21.5,3 21,3 Z"/>
    </clipPath>
  </defs>

  <!-- Cream/ivory background -->
  <rect width="32" height="32" rx="7" fill="#faf8f5"/>

  <!-- Glass bowl — wide at bottom, narrow at top (correct wine glass) -->
  <!-- Outer bowl shape -->
  <path d="M11,3 C9,7 7.5,11 9,15.5 C10.2,19 12.8,21 16,21 C19.2,21 21.8,19 23,15.5 C24.5,11 23,7 21,3 Z"
        fill="none" stroke="#722f37" stroke-width="1.4" stroke-linejoin="round"/>

  <!-- Wine fill inside bowl — top portion empty, lower full -->
  <path d="M10.2,13 C10,14.8 10.8,17 12,18.5 C13.2,20 14.5,20.8 16,20.8 C17.5,20.8 18.8,20 20,18.5 C21.2,17 22,14.8 21.8,13 C19.5,14.5 16,14.8 10.2,13 Z"
        fill="#722f37"/>

  <!-- Stem -->
  <line x1="16" y1="21" x2="16" y2="27.5" stroke="#722f37" stroke-width="1.3" stroke-linecap="round"/>

  <!-- Base — elegant oval -->
  <path d="M11.5,27.5 Q16,29.5 20.5,27.5" stroke="#722f37" stroke-width="1.4" stroke-linecap="round" fill="none"/>
</svg>
